<svg xmlns="http://www.w3.org/2000/svg"
    xmlns:xlink="http://www.w3.org/1999/xlink" version="1.1" width="114.74786" height="101.94946" viewBox="0,0,114.74786,101.94946">
    <g>
        <g data-paper-data="{&quot;isPaintingLayer&quot;:true}" fill-rule="nonzero" stroke-linecap="butt" stroke-linejoin="miter" stroke-miterlimit="10" stroke-dasharray="" stroke-dashoffset="0" style="mix-blend-mode: normal">
            <path d="M 57.0692 50.9747 C 57.0692 78.575 44.5177 100.9495 29.0346 100.9495 C 13.5515 100.9495 1 78.575 1 50.9747 C 1 23.3744 13.5515 1 29.0346 1 C 44.5177 1 57.0692 23.3744 57.0692 50.9747 Z " fill="#ffffff" stroke-width="2" stroke="#000000"/>
            <path d="M 29.644 63.7731 C 29.644 76.2269 23.2319 86.3227 15.322 86.3227 C 7.4122 86.3227 1 76.2269 1 63.7731 C 1 51.3194 7.4122 41.2236 15.322 41.2236 C 23.2319 41.2236 29.644 51.3194 29.644 63.7731 Z " fill="#000000" stroke-width="2" stroke="#000000"/>
            <path d="M 113.7479 50.9747 C 113.7479 78.575 101.1963 100.9495 85.7133 100.9495 C 70.2302 100.9495 57.6786 78.575 57.6786 50.9747 C 57.6786 23.3744 70.2302 1 85.7133 1 C 101.1963 1 113.7479 23.3744 113.7479 50.9747 Z " fill="#ffffff" stroke-width="2" stroke="#000000"/>
            <path d="M 86.3227 63.7731 C 86.3227 76.2269 79.9105 86.3227 72.0007 86.3227 C 64.0909 86.3227 57.6787 76.2269 57.6787 63.7731 C 57.6787 51.3193 64.0909 41.2236 72.0007 41.2236 C 79.9105 41.2236 86.3227 51.3194 86.3227 63.7731 Z " fill="#000000" stroke-width="2" stroke="#000000"/>
        </g>
    </g>
</svg>